<?xml version="1.0" encoding="UTF-8"?>
<!DOCTYPE svg PUBLIC "-//W3C//DTD SVG 1.1//EN" "http://www.w3.org/Graphics/SVG/1.1/DTD/svg11.dtd">
<svg version="1.2" xmlns="http://www.w3.org/2000/svg" xmlns:xlink="http://www.w3.org/1999/xlink" x="0" y="0" width="340" height="392" viewBox="0 0 340 392">
<style type="text/css"><![CDATA[
text { font:12px Dialog; }
]]></style>
<rect x="-1068" y="-1166" width="2620" height="2724" style="fill:rgb(255,255,255);stroke:none" />
<clipPath id="clip1"><path d="M15,15 L325,15 L325,377 L15,377 Z M26,165 C21.5817184,165 18,168.5817261 18,173 L18,218 C18,222.4182739 21.5817184,226 26,226 L170,226 C174.4182739,226 178,222.4182739 178,218 L178,173 C178,168.5817261 174.4182739,165 170,165 Z M26,165" /></clipPath>
<path d="M113.5784607,165 C128.5610199,77 151.0348663,33 181,33" style="fill:none;stroke:rgb(85,142,213)" clip-path="url(#clip1)" />
<clipPath id="clip2"><path d="M15,15 L325,15 L325,377 L15,377 Z M26,165 C21.5817184,165 18,168.5817261 18,173 L18,218 C18,222.4182739 21.5817184,226 26,226 L170,226 C174.4182739,226 178,222.4182739 178,218 L178,173 C178,168.5817261 174.4182739,165 170,165 Z M26,165" /></clipPath>
<path d="M137.8238373,165 C156.9740906,121 185.6994934,99 224,99" style="fill:none;stroke:rgb(85,142,213)" clip-path="url(#clip2)" />
<clipPath id="clip3"><path d="M15,15 L325,15 L325,377 L15,377 Z M26,165 C21.5817184,165 18,168.5817261 18,173 L18,218 C18,222.4182739 21.5817184,226 26,226 L170,226 C174.4182739,226 178,222.4182739 178,218 L178,173 C178,168.5817261 174.4182739,165 170,165 Z M26,165" /></clipPath>
<path d="M178,177.7535248 C191.777771,168.5845032 212.4444427,164 240,164" style="fill:none;stroke:rgb(85,142,213)" clip-path="url(#clip3)" />
<clipPath id="clip4"><path d="M15,15 L325,15 L325,377 L15,377 Z M26,165 C21.5817184,165 18,168.5817261 18,173 L18,218 C18,222.4182739 21.5817184,226 26,226 L170,226 C174.4182739,226 178,222.4182739 178,218 L178,173 C178,168.5817261 174.4182739,165 170,165 Z M26,165" /></clipPath>
<path d="M178,214.3732452 C191.777771,224.1244202 212.4444427,229 240,229" style="fill:none;stroke:rgb(85,142,213)" clip-path="url(#clip4)" />
<clipPath id="clip5"><path d="M15,15 L325,15 L325,377 L15,377 Z M26,165 C21.5817184,165 18,168.5817261 18,173 L18,218 C18,222.4182739 21.5817184,226 26,226 L170,226 C174.4182739,226 178,222.4182739 178,218 L178,173 C178,168.5817261 174.4182739,165 170,165 Z M26,165" /></clipPath>
<path d="M136.7055817,226 C155.8821259,271.3333435 184.6469269,294 223,294" style="fill:none;stroke:rgb(85,142,213)" clip-path="url(#clip5)" />
<clipPath id="clip6"><path d="M15,15 L325,15 L325,377 L15,377 Z M26,165 C21.5817184,165 18,168.5817261 18,173 L18,218 C18,222.4182739 21.5817184,226 26,226 L170,226 C174.4182739,226 178,222.4182739 178,218 L178,173 C178,168.5817261 174.4182739,165 170,165 Z M26,165" /></clipPath>
<path d="M113.4831772,226 C128.4869232,314.6666565 150.9925232,359 181,359" style="fill:none;stroke:rgb(85,142,213)" clip-path="url(#clip6)" />
<clipPath id="clip7"><path d="M14,161 L183,161 L183,231 L14,231 L14,161 Z" /></clipPath>
<path d="M26,165 C21.5817184,165 18,168.5817261 18,173 L18,218 C18,222.4182739 21.5817184,226 26,226 L170,226 C174.4182739,226 178,222.4182739 178,218 L178,173 C178,168.5817261 174.4182739,165 170,165 Z M26,165" style="fill:rgb(220,230,242);stroke:none" clip-path="url(#clip7)" />
<clipPath id="clip8"><path d="M14,161 L183,161 L183,231 L14,231 L14,161 Z" /></clipPath>
<path d="M26,165 C21.5817184,165 18,168.5817261 18,173 L18,218 C18,222.4182739 21.5817184,226 26,226 L170,226 C174.4182739,226 178,222.4182739 178,218 L178,173 C178,168.5817261 174.4182739,165 170,165 Z M26,165" style="fill:none;stroke:rgb(85,142,213);stroke-width:5" clip-path="url(#clip8)" />
<clipPath id="clip9"><path d="M50,181 L147,181 L147,211 L50,211 L50,181 Z" /></clipPath>
<path d="M61.3390007,200.1580048 L62.5809975,198.9160004 C61.9329987,197.9080048 61.3029976,196.9900055 60.6909981,196.1620026 C61.1049995,194.6860046 61.4469986,193.0659943 61.7169991,191.2660065 L59.9889984,190.9600067 C59.8269997,192.147995 59.6110001,193.3000031 59.3589973,194.3800049 C58.7469978,193.5879974 58.1709976,192.904007 57.6310005,192.3280029 L56.5690002,193.3540039 L56.5690002,190.0599976 L67.6569977,190.0599976 L67.6569977,199.6360016 C67.0090027,198.5559998 66.3789978,197.5480042 65.7669983,196.6300049 C66.2709961,195.0460052 66.6849976,193.2640076 66.9909973,191.3200073 L65.2269974,191.0140076 C65.0289993,192.3280029 64.7770004,193.5700073 64.4710007,194.7400055 C63.8589973,193.8760071 63.2829971,193.1560059 62.7609978,192.5440063 L61.6089973,193.6600037 C62.3829994,194.6679993 63.1389999,195.6940002 63.8589973,196.7559967 C63.2469978,198.447998 62.4909973,199.923996 61.5909996,201.2200012 L62.7789993,202.6959991 C63.6429977,201.5440063 64.3990021,200.1940002 65.0469971,198.6100006 C65.5509949,199.4019928 66.0189972,200.2120056 66.4869995,201.0399933 L67.6569977,199.8699951 L67.6569977,201.904007 C67.6569977,202.3000031 67.4409943,202.4980011 67.0270004,202.4980011 L65.3710022,202.4080048 L65.8390045,204.2259979 L67.6389999,204.2259979 C68.8809967,204.2259979 69.5110016,203.595993 69.5110016,202.3359985 L69.5110016,188.2599945 L54.7150002,188.2599945 L54.7150002,204.352005 L56.5690002,204.352005 L56.5690002,193.552002 C57.3250008,194.4700012 58.0809975,195.423996 58.8009987,196.3959961 C58.2609978,198.052002 57.5769997,199.5279999 56.7490005,200.7879944 L57.9370003,202.2640076 C58.7469978,201.1119995 59.4489975,199.7440033 60.0429993,198.1600037 C60.4749985,198.8079987 60.9069977,199.473999 61.3390007,200.1580048 Z M78.3669968,200.3919983 C76.5849991,201.0399933 74.5149994,201.5440063 72.1389999,201.9219971 L72.3730011,203.7579956 C74.6230011,203.3439941 76.6210022,202.8040009 78.3669968,202.1560059 Z M74.8209991,187.5939941 C74.2089996,189.5019989 73.4889984,191.2660065 72.6609955,192.8679962 C72.427002,193.1920013 72.1750031,193.4259949 71.887001,193.552002 L72.336998,195.2619934 C73.2009964,195.1360016 74.0289993,195.0099945 74.8209991,194.9019928 C74.0650024,196.2879944 73.4349976,197.2599945 72.9309998,197.8000031 C72.6969986,198.0160065 72.4089966,198.1959991 72.0849991,198.3399963 L72.5709991,200.0319977 C74.2809982,199.7980042 76.098999,199.3300018 78.0250015,198.6459961 L78.0250015,196.9720001 C76.927002,197.3679962 75.8470001,197.6920013 74.7850037,197.9440002 C75.6669998,196.7380066 76.7470016,194.8840027 78.0250015,192.3820038 L78.9970016,193.6600037 C79.4830017,193.2640076 79.9329987,192.8320007 80.3649979,192.3639984 C80.7429962,192.9579926 81.1930008,193.5339966 81.7149963,194.0919952 C80.5270004,194.8659973 79.1230011,195.5500031 77.4850006,196.1260071 L78.6549988,197.6560059 C78.8529968,197.5839996 79.0690002,197.4940033 79.2850037,197.404007 L79.2850037,204.1900024 L81.0849991,204.1900024 L81.0849991,203.5599976 L85.2070007,203.5599976 L85.2070007,204.1900024 L87.0069962,204.1900024 L87.0069962,197.404007 L87.5650024,197.5839996 L88.6269989,196.0359955 C87.0429993,195.6040039 85.6569977,194.973999 84.4690018,194.1820068 C85.5849991,193.102005 86.4489975,191.878006 87.0250015,190.473999 L87.0250015,189.1239929 L82.3809967,189.1239929 C82.5250015,188.7640076 82.651001,188.404007 82.7590027,188.0440063 L80.9769974,187.6840057 C80.4729996,189.3399963 79.5550003,190.7619934 78.1869965,191.9320068 L76.6210022,191.3379974 L75.7030029,193.2279968 L74.0650024,193.4440002 C74.9109955,192.1119995 75.7569962,190.3840027 76.5849991,188.2779999 Z M81.3730011,191.0500031 C81.427002,190.9779968 81.4810028,190.8880005 81.5530014,190.7799988 L84.9729996,190.7799988 C84.4690018,191.6080017 83.8389969,192.3639984 83.0469971,193.0659943 C82.3990021,192.4720001 81.8410034,191.8059998 81.3730011,191.0500031 Z M86.862999,197.3500061 L79.4290009,197.3500061 C80.8150024,196.7740021 82.0390015,196.0899963 83.0830002,195.3339996 C84.1449966,196.1620026 85.4049988,196.8280029 86.862999,197.3500061 Z M81.0849991,201.8679962 L81.0849991,199.0419922 L85.2070007,199.0419922 L85.2070007,201.8679962 Z M97.6809998,190.2940063 L97.6809998,201.8500061 L94.4769974,201.8500061 L94.4769974,193.5339966 L92.6409988,193.5339966 L92.6409988,201.8500061 L90.0130005,201.8500061 L90.0130005,203.6860046 L106.2310028,203.6860046 L106.2310028,201.8500061 L99.5709991,201.8500061 L99.5709991,196.6840057 L104.5029984,196.6840057 L104.5029984,194.8840027 L99.5709991,194.8840027 L99.5709991,190.2940063 L105.4749985,190.2940063 L105.4749985,188.4579926 L91.0749969,188.4579926 L91.0749969,190.2940063 Z M116.8509979,188.2420044 L108.6609955,188.2420044 L108.6609955,199.8159943 L110.4789963,199.8159943 L110.4789963,190.0419922 L115.0149994,190.0419922 L115.0149994,199.654007 L116.8509979,199.654007 Z M114.5469971,200.0319977 L113.2149963,201.3280029 C114.4209976,202.371994 115.3569946,203.3619995 116.022995,204.2799988 L117.4449997,202.8580017 C116.6529999,201.9219971 115.6809998,200.9859924 114.5469971,200.0319977 Z M111.8649979,191.0679932 L111.8649979,196.6660004 C111.7929993,198.2319946 111.4869995,199.5099945 110.9290009,200.5180054 C110.3529968,201.4179993 109.2549973,202.1920013 107.6350021,202.8040009 L108.6969986,204.4960022 C110.3889999,203.8480072 111.6309967,202.9299927 112.4049988,201.7599945 C113.1790009,200.5 113.6110001,198.7899933 113.6829987,196.6660004 L113.6829987,191.0679932 Z M118.3990021,189.25 L118.3990021,200.3200073 L120.2169952,200.3200073 L120.2169952,189.25 Z M121.9089966,204.154007 C123.2050018,204.154007 123.8710022,203.4880066 123.8710022,202.1920013 L123.8710022,187.7380066 L121.9990005,187.7380066 L121.9990005,201.7059937 C121.9990005,202.1920013 121.7470016,202.4440002 121.2429962,202.4440002 C120.5410004,202.4440002 119.7850037,202.4080048 118.9929962,202.3359985 L119.4250031,204.154007 Z M131.0350037,187.5039978 C129.8829956,190.2940063 128.1009979,192.723999 125.7070007,194.776001 L126.3190002,196.7380066 C127.1110001,196.0720062 127.8669968,195.3880005 128.5690002,194.6860046 L128.5690002,204.3699951 L130.4409943,204.3699951 L130.4409943,192.4900055 C131.4129944,191.1759949 132.2050018,189.7899933 132.798996,188.3320007 Z M139.6929932,204.0460052 C140.6109924,204.0460052 141.2409973,203.8300018 141.5830078,203.4160004 C141.9250031,202.9839935 142.1589966,201.723999 142.2850037,199.654007 L140.5570068,199.0599976 C140.5209961,200.6620026 140.4129944,201.5980072 140.2330017,201.8679962 C140.0529938,202.1199951 139.7649994,202.2640076 139.3690033,202.2640076 L136.7770081,202.2640076 C136.2189941,202.2640076 135.9490051,202.0119934 135.9490051,201.526001 L135.9490051,195.8379974 C138.1269989,194.4880066 140.0709991,192.9400024 141.798996,191.1759949 L140.4850006,189.6820068 C139.17099,191.121994 137.6589966,192.4179993 135.9490051,193.5700073 L135.9490051,187.8099976 L134.0769958,187.8099976 L134.0769958,194.7220001 C133.2129974,195.1900024 132.3130035,195.6399994 131.3589935,196.0720062 L132.2050018,197.8540039 C132.8349915,197.5480042 133.4649963,197.2420044 134.0769958,196.9179993 L134.0769958,201.7960052 C134.0769958,203.2899933 134.8330078,204.0460052 136.3450012,204.0460052 Z M143.1130066,202.4620056" style="fill:rgb(55,96,146);stroke:none" clip-path="url(#clip9)" />
<clipPath id="clip10"><path d="M179,14 L290,14 L290,53 L179,53 L179,14 Z" /></clipPath>
<path d="M186,16 C183.2385712,16 181,18.2385712 181,21 L181,45 C181,47.7614288 183.2385712,50 186,50 L282,50 C284.7614136,50 287,47.7614288 287,45 L287,21 C287,18.2385712 284.7614136,16 282,16 Z M186,16" style="fill:rgb(220,230,242);stroke:none" clip-path="url(#clip10)" />
<clipPath id="clip11"><path d="M179,14 L290,14 L290,53 L179,53 L179,14 Z" /></clipPath>
<path d="M186,16 C183.2385712,16 181,18.2385712 181,21 L181,45 C181,47.7614288 183.2385712,50 186,50 L282,50 C284.7614136,50 287,47.7614288 287,45 L287,21 C287,18.2385712 284.7614136,16 282,16 Z M186,16" style="fill:none;stroke:rgb(85,142,213);stroke-width:2" clip-path="url(#clip11)" />
<clipPath id="clip12"><path d="M193,23 L276,23 L276,44 L193,44 L193,23 Z" /></clipPath>
<path d="M196.9704895,38.1669922 L198.0622864,38.1669922 L198.0622864,28.6074219 L196.9704895,28.6074219 C196.9704895,28.6074219 196.9704895,28.8380585 196.9704895,29.2993164 C196.9704895,29.7605743 196.9704895,30.3540802 196.9704895,31.079834 C196.9704895,31.8055878 196.9704895,32.574707 196.9704895,33.387207 C196.9704895,34.199707 196.9704895,34.9688263 196.9704895,35.6945801 C196.9704895,36.4203339 196.9704895,37.0138397 196.9704895,37.4750977 C196.9704895,37.9363556 196.9704895,38.1669922 196.9704895,38.1669922 Z M203.4324036,38.1669922 L204.5749817,38.1669922 L204.5749817,29.0073242 L203.4387512,29.0073242 C203.4387512,29.0073242 203.31604,29.0951385 203.0705872,29.270752 C202.8251343,29.4463654 202.541626,29.6505585 202.2200012,29.8833008 C201.8983765,30.1160431 201.6148682,30.3202362 201.3694153,30.4958496 C201.1239624,30.671463 201.0012512,30.7592773 201.0012512,30.7592773 L201.0012512,31.965332 C201.0012512,31.965332 201.1186829,31.8806915 201.3535461,31.7114258 C201.5884094,31.54216 201.8592377,31.3453827 202.1660461,31.1210938 C202.4728546,30.8968048 202.7436829,30.7000275 202.9785461,30.5307617 C203.2134094,30.361496 203.3308411,30.2768555 203.3308411,30.2768555 L203.4324036,30.2768555 C203.4324036,30.2768555 203.4324036,30.4672852 203.4324036,30.8481445 C203.4324036,31.2290039 203.4324036,31.7188263 203.4324036,32.317627 C203.4324036,32.9164276 203.4324036,33.551178 203.4324036,34.2219238 C203.4324036,34.8926697 203.4324036,35.52742 203.4324036,36.1262207 C203.4324036,36.7250214 203.4324036,37.2148438 203.4324036,37.5957031 C203.4324036,37.9765625 203.4324036,38.1669922 203.4324036,38.1669922 Z M219.2677765,28.4299927 L214.3017731,28.4299927 L214.3017731,39.0769958 L215.1987762,39.0769958 L215.1987762,37.9199982 L218.3577728,37.9199982 L218.3577728,38.946991 L219.2677765,38.946991 Z M215.1987762,37.0359955 L215.1987762,29.3009949 L218.3577728,29.3009949 L218.3577728,37.0359955 Z M208.3607788,31.1209869 L208.3607788,31.9919891 L210.6357727,31.9919891 L210.6357727,32.0829926 C210.1027832,33.5129852 209.231781,34.7999878 208.0227661,35.943985 L208.4127808,36.9579926 C209.3357849,35.9569855 210.0767822,34.8389893 210.6357727,33.6039886 L210.6357727,39.3759918 L211.5457764,39.3759918 L211.5457764,33.5129852 C212.0267639,34.0589905 212.5987854,34.7999878 213.2747803,35.7229919 L213.8207703,34.9169922 C213.053772,34.0589905 212.2997742,33.3049927 211.5457764,32.6419983 L211.5457764,31.9919891 L213.7687683,31.9919891 L213.7687683,31.1209869 L211.5457764,31.1209869 L211.5457764,29.0669861 C212.2737732,28.9109955 212.9627686,28.7029877 213.6387634,28.4559937 L213.1967773,27.6759949 C211.8967743,28.1699982 210.2847748,28.4949951 208.3477783,28.6509857 L208.6467743,29.4829865 C209.3227844,29.4309998 209.9857788,29.3529968 210.6357727,29.2489929 L210.6357727,31.1209869 Z M221.7832336,38.1669922 L222.8750305,38.1669922 L222.8750305,28.6074219 L221.7832336,28.6074219 C221.7832336,28.6074219 221.7832336,28.8380585 221.7832336,29.2993164 C221.7832336,29.7605743 221.7832336,30.3540802 221.7832336,31.079834 C221.7832336,31.8055878 221.7832336,32.574707 221.7832336,33.387207 C221.7832336,34.199707 221.7832336,34.9688263 221.7832336,35.6945801 C221.7832336,36.4203339 221.7832336,37.0138397 221.7832336,37.4750977 C221.7832336,37.9363556 221.7832336,38.1669922 221.7832336,38.1669922 Z M225.1157532,31.5908203 L226.2202301,31.5908203 C226.2202301,31.0491486 226.3873901,30.6132813 226.7216949,30.2832031 C227.056015,29.953125 227.49823,29.7880859 228.0483551,29.7880859 C228.5900269,29.7880859 229.014267,29.9488983 229.3210602,30.2705078 C229.6278687,30.5921173 229.7812653,30.9962616 229.7812653,31.4829102 C229.7812653,31.8849335 229.6754761,32.2520294 229.4638824,32.5842285 C229.2523041,32.9164276 228.8545227,33.3977814 228.2705231,34.0283203 L225.1728821,37.3798828 L225.1728821,38.1669922 L231.1015778,38.1669922 L231.1015778,37.1386719 L226.7597809,37.1386719 L226.7597809,37.0371094 L228.8418121,34.8852539 C229.6670227,34.030426 230.2245483,33.3607635 230.5144196,32.8762207 C230.804306,32.3916779 230.949234,31.8870544 230.949234,31.3623047 C230.949234,30.6175079 230.6784058,30.0028534 230.136734,29.5183105 C229.5950775,29.0337677 228.9243469,28.7915039 228.124527,28.7915039 C227.2485504,28.7915039 226.5281067,29.0538635 225.9631653,29.5786133 C225.3982086,30.103363 225.1157532,30.7740784 225.1157532,31.5908203 Z M238.6465149,29.144989 L238.6465149,37.9849854 L235.9165039,37.9849854 L235.9165039,31.7449951 L235.0065155,31.7449951 L235.0065155,37.9849854 L232.9655151,37.9849854 L232.9655151,38.894989 L244.5485077,38.894989 L244.5485077,37.9849854 L239.5955048,37.9849854 L239.5955048,33.8249969 L243.3395081,33.8249969 L243.3395081,32.9279938 L239.5955048,32.9279938 L239.5955048,29.144989 L244.0025024,29.144989 L244.0025024,28.2219849 L233.7325134,28.2219849 L233.7325134,29.144989 Z M252.3355103,28.0789948 L246.7975159,28.0789948 L246.7975159,36.2039948 L247.7075043,36.2039948 L247.7075043,28.9889984 L251.4255066,28.9889984 L251.4255066,36.0869904 L252.3355103,36.0869904 Z M250.5935059,36.4379883 L249.943512,37.0749969 C250.8795166,37.9069977 251.6335144,38.673996 252.1795044,39.4019928 L252.8815155,38.7129974 C252.2575073,37.9589996 251.5035095,37.1919861 250.5935059,36.4379883 Z M249.1115112,29.8339996 L249.1115112,33.9289856 C249.0855103,35.1639862 248.8515015,36.1649933 248.4225159,36.9319916 C247.9545135,37.6729889 247.1355133,38.2709961 245.9655151,38.7129974 L246.4985046,39.5449982 C247.7205048,39.0769958 248.591507,38.4139862 249.1375122,37.568985 C249.6835022,36.6589966 249.9825134,35.4499969 250.0215149,33.9289856 L250.0215149,29.8339996 Z M253.8175049,28.6769867 L253.8175049,36.7889862 L254.7275085,36.7889862 L254.7275085,28.6769867 Z M256.1445313,39.3369904 C256.9765015,39.3369904 257.4055176,38.9079895 257.4055176,38.0629883 L257.4055176,27.5849915 L256.4695129,27.5849915 L256.4695129,37.8289948 C256.4695129,38.2579956 256.2485046,38.4789886 255.8195038,38.4789886 C255.2995148,38.4789886 254.7535095,38.4529877 254.1815033,38.4269867 L254.3895111,39.3369904 Z M263.2814941,27.4549866 C262.4495239,29.5089874 261.1105042,31.3289948 259.2645264,32.9149933 L259.5635071,33.8899994 C260.2525024,33.3179932 260.8895264,32.7069855 261.4744873,32.0699921 L261.4744873,39.4929962 L262.4105225,39.4929962 L262.4105225,30.9259949 C263.1124878,29.9639893 263.6975098,28.9499969 264.1525269,27.8579865 Z M269.2745056,39.2589874 C269.8984985,39.2589874 270.3275146,39.1029968 270.5615234,38.7909851 C270.7825317,38.4789886 270.9385071,37.568985 271.0295105,36.0739899 L270.1585083,35.7879944 C270.1065063,37.0749969 270.0155029,37.8289948 269.8724976,38.0369873 C269.7164917,38.2449951 269.4565125,38.3619995 269.1185303,38.3619995 L267.0125122,38.3619995 C266.5704956,38.3619995 266.3624878,38.1539917 266.3624878,37.7509918 L266.3624878,33.3569946 C267.9744873,32.3429871 269.39151,31.1859894 270.6005249,29.8859863 L269.9505005,29.144989 C268.9235229,30.3019867 267.7275085,31.3419952 266.3624878,32.2519989 L266.3624878,27.6109924 L265.4265137,27.6109924 L265.4265137,32.8239899 C264.7634888,33.2139893 264.0615234,33.5649872 263.3334961,33.9029846 L263.7495117,34.7869873 C264.3215027,34.5139923 264.8804932,34.2279968 265.4265137,33.9159851 L265.4265137,37.8809967 C265.4265137,38.7909851 265.8815308,39.2589874 266.7915039,39.2589874 Z M271.7705078,38.1669922" style="fill:rgb(23,55,94);stroke:none" clip-path="url(#clip12)" />
<clipPath id="clip13"><path d="M222,81 L310,81 L310,118 L222,118 L222,81 Z" /></clipPath>
<path d="M229,83 C226.2385712,83 224,85.2385712 224,88 L224,110 C224,112.7614288 226.2385712,115 229,115 L302,115 C304.7614136,115 307,112.7614288 307,110 L307,88 C307,85.2385712 304.7614136,83 302,83 Z M229,83" style="fill:rgb(220,230,242);stroke:none" clip-path="url(#clip13)" />
<clipPath id="clip14"><path d="M222,81 L310,81 L310,118 L222,118 L222,81 Z" /></clipPath>
<path d="M229,83 C226.2385712,83 224,85.2385712 224,88 L224,110 C224,112.7614288 226.2385712,115 229,115 L302,115 C304.7614136,115 307,112.7614288 307,110 L307,88 C307,85.2385712 304.7614136,83 302,83 Z M229,83" style="fill:none;stroke:rgb(85,142,213);stroke-width:2" clip-path="url(#clip14)" />
<clipPath id="clip15"><path d="M236,90 L296,90 L296,109 L236,109 L236,90 Z" /></clipPath>
<path d="M242.8345032,98.7070007 C243.2375031,99.201004 243.7185059,99.8509979 244.2774963,100.6569977 L244.8105011,99.8639984 C244.1475067,99.0839996 243.4844971,98.3690033 242.8345032,97.7450027 L242.8345032,97.0039978 L244.5505066,97.0039978 L244.5505066,96.1070023 L242.8345032,96.1070023 L242.8345032,93.5719986 L241.8984985,93.5719986 L241.8984985,96.1070023 L239.8574982,96.1070023 L239.8574982,97.0039978 L241.8724976,97.0039978 C241.4174957,98.6289978 240.6504974,100.0719986 239.5845032,101.3460007 L240.0005035,102.3990021 C240.7935028,101.2939987 241.4304962,100.0589981 241.8984985,98.6809998 L241.8984985,105.4280014 L242.8345032,105.4280014 Z M249.8025055,95.2490005 C249.4904938,97.2770004 248.8795013,99.0709991 247.9434967,100.6309967 C246.9945068,99.0449982 246.4485016,97.2509995 246.2924957,95.2490005 Z M247.3975067,101.4629974 C246.513504,102.697998 245.3825073,103.7639999 244.0175018,104.6740036 L244.6154938,105.4280014 C245.9284973,104.5699997 247.0464935,103.5299988 247.9564972,102.2949982 C248.7624969,103.4260025 249.789505,104.4790039 251.0115051,105.4410019 L251.6484985,104.6870041 C250.3744965,103.737999 249.3345032,102.6719971 248.5025024,101.5019989 C249.5944977,99.7600021 250.335495,97.6669998 250.7124939,95.2360001 L250.7124939,94.3519974 L244.8625031,94.3519974 L244.8625031,95.2490005 L245.3825073,95.2490005 C245.5644989,97.5240021 246.2404938,99.5910034 247.3975067,101.4629974 Z M254.3654938,97.3809967 L254.3654938,101.6969986 L258.3825073,101.6969986 L258.3825073,102.5940018 L253.7675018,102.5940018 L253.7675018,103.3479996 L258.3825073,103.3479996 L258.3825073,104.322998 L253.1175079,104.322998 L253.1175079,105.1419983 L264.6094971,105.1419983 L264.6094971,104.322998 L259.3184814,104.322998 L259.3184814,103.3479996 L263.9725037,103.3479996 L263.9725037,102.5940018 L259.3184814,102.5940018 L259.3184814,101.6969986 L263.3485107,101.6969986 L263.3485107,97.3809967 L259.3184814,97.3809967 L259.3184814,96.5490036 L264.4274902,96.5490036 L264.4274902,95.7430038 L259.3184814,95.7430038 L259.3184814,94.7549973 C260.7615051,94.6640015 262.1134949,94.5599976 263.3615112,94.4300003 L263.0755005,93.6500015 C260.4884949,93.935997 257.4985046,94.1309967 254.1184998,94.2350006 L254.2745056,95.0019989 C255.7044983,94.9499969 257.069519,94.8850021 258.3825073,94.8069992 L258.3825073,95.7430038 L253.2994995,95.7430038 L253.2994995,96.5490036 L258.3825073,96.5490036 L258.3825073,97.3809967 Z M262.4385071,100.9430008 L259.3184814,100.9430008 L259.3184814,99.8899994 L262.4385071,99.8899994 Z M258.3825073,100.9430008 L255.2624969,100.9430008 L255.2624969,99.8899994 L258.3825073,99.8899994 Z M255.2624969,99.1620026 L255.2624969,98.1350021 L258.3825073,98.1350021 L258.3825073,99.1620026 Z M259.3184814,98.1350021 L262.4385071,98.1350021 L262.4385071,99.1620026 L259.3184814,99.1620026 Z M272.1365051,100.8000031 C272.7994995,102.776001 274.6195068,104.322998 277.5834961,105.4540024 L278.0905151,104.6350021 C276.9725037,104.2580032 276.0234985,103.8160019 275.2434998,103.3219986 C276.1015015,102.8799973 276.8815002,102.2559967 277.5704956,101.4629974 L276.9335022,100.826004 C276.1795044,101.7360001 275.3735046,102.3860016 274.5415039,102.802002 C273.8135071,102.2040024 273.3065186,101.5410004 273.0205078,100.8000031 L275.9974976,100.8000031 L275.9974976,98.9540024 L277.8175049,98.9540024 L277.8175049,98.0960007 L275.9974976,98.0960007 L275.9974976,96.223999 L268.3015137,96.223999 L268.3015137,98.0960007 L266.3905029,98.0960007 L266.3905029,98.9540024 L268.3015137,98.9540024 L268.3015137,100.8000031 L270.5635071,100.8000031 C269.6015015,101.7360001 268.1195068,102.5029984 266.1044922,103.1139984 L266.5985107,103.9199982 C267.6254883,103.5559998 268.5355225,103.1399994 269.3284912,102.6849976 L269.3284912,104.322998 C269.3284912,104.4790039 269.2374878,104.6090012 269.055481,104.6999969 L269.2634888,105.5189972 C270.8104858,105.2070007 272.1365051,104.8820038 273.2415161,104.5309982 L273.0855103,103.685997 C272.2015076,103.9980011 271.239502,104.2710037 270.1994934,104.5049973 L270.1994934,102.112999 C270.7454834,101.7099991 271.2005005,101.2679977 271.5905151,100.8000031 Z M266.7675171,94.5080032 L266.7675171,95.3529968 L277.4664917,95.3529968 L277.4664917,94.5080032 L272.6694946,94.5080032 C272.5394897,94.1180038 272.3964844,93.7799988 272.253479,93.4810028 L271.2655029,93.637001 C271.4215088,93.8970032 271.5645142,94.1959991 271.7075195,94.5080032 Z M275.1004944,99.9940033 L269.2114868,99.9940033 L269.2114868,98.8889999 L275.1004944,98.8889999 Z M269.2114868,98.1610031 L269.2114868,97.0299988 L275.1004944,97.0299988 L275.1004944,98.1610031 Z M284.5385132,97.3160019 L284.5385132,98.1220016 L287.1124878,98.1220016 L287.1124878,97.3160019 Z M284.6165161,99.1620026 L284.6165161,102.9970016 L287.1384888,102.9970016 L287.1384888,99.1620026 Z M286.4364929,102.2949982 L285.3184814,102.2949982 L285.3184814,99.8639984 L286.4364929,99.8639984 Z M290.0505066,97.3030014 C289.7904968,98.6809998 289.4135132,99.8899994 288.9454956,100.9430008 C288.8674927,100.5400009 288.8024902,100.0979996 288.7504883,99.6299973 C288.6074829,98.4729996 288.5164795,97.3290024 288.4644775,96.1849976 L291.1035156,96.1849976 L291.1035156,95.314003 L290.4794922,95.314003 C290.2714844,94.7939987 290.0505066,94.3130035 289.8164978,93.8970032 L289.0494995,94.0270004 C289.3095093,94.4169998 289.5435181,94.8460007 289.7514954,95.314003 L288.4255066,95.314003 C288.3995056,94.7290039 288.3865051,94.1439972 288.3865051,93.5589981 L287.5155029,93.5589981 C287.5155029,94.1439972 287.5155029,94.7290039 287.5415039,95.314003 L283.0435181,95.314003 L283.0435181,99.7990036 C283.0045166,101.9570007 282.5625,103.6340027 281.7044983,104.8430023 L282.3934937,105.4540024 C283.3424988,104.0370026 283.8364868,102.1520004 283.8884888,99.7990036 L283.8884888,96.1849976 L287.5935059,96.1849976 C287.6715088,97.6539993 287.8145142,99.0449982 288.0355225,100.3710022 C288.1394958,100.9690018 288.2434998,101.5279999 288.3735046,102.0350037 C287.6715088,103.1790009 286.8135071,104.0630035 285.7734985,104.6610031 L286.3325195,105.3759995 C287.2164917,104.8430023 287.996521,104.0889969 288.6724854,103.1269989 C288.8154907,103.5950012 288.9714966,103.9850006 289.1535034,104.2969971 C289.5435181,105.012001 289.9595032,105.3759995 290.4144897,105.3759995 C291.0645142,105.3759995 291.4024963,104.401001 291.4154968,102.4769974 L290.6484985,102.1259995 C290.6224976,103.6729965 290.5184937,104.4530029 290.3494873,104.4660034 C290.1154785,104.4400024 289.8554993,104.076004 289.569519,103.4000015 C289.4395142,103.0749969 289.3225098,102.697998 289.2185059,102.2559967 C289.9075012,101.0080032 290.4534912,99.4609985 290.8435059,97.6409988 Z M280.2875061,94.0920029 L279.5205078,94.572998 C280.3265076,95.6389999 280.9505005,96.6139984 281.4185181,97.4850006 L282.1594849,96.965004 C281.7304993,96.1460037 281.1065063,95.1839981 280.2875061,94.0920029 Z M281.5355225,99.4089966 C280.9505005,101.2290039 280.2615051,103.0230026 279.4685059,104.7649994 L280.3394775,105.1549988 C281.0675049,103.465004 281.7434998,101.6579971 282.3414917,99.7340012 Z M291.8834839,104.1800003" style="fill:rgb(23,55,94);stroke:none" clip-path="url(#clip15)" />
<clipPath id="clip16"><path d="M238,146 L326,146 L326,183 L238,183 L238,146 Z" /></clipPath>
<path d="M245,148 C242.2385712,148 240,150.2385712 240,153 L240,175 C240,177.7614288 242.2385712,180 245,180 L318,180 C320.7614136,180 323,177.7614288 323,175 L323,153 C323,150.2385712 320.7614136,148 318,148 Z M245,148" style="fill:rgb(220,230,242);stroke:none" clip-path="url(#clip16)" />
<clipPath id="clip17"><path d="M238,146 L326,146 L326,183 L238,183 L238,146 Z" /></clipPath>
<path d="M245,148 C242.2385712,148 240,150.2385712 240,153 L240,175 C240,177.7614288 242.2385712,180 245,180 L318,180 C320.7614136,180 323,177.7614288 323,175 L323,153 C323,150.2385712 320.7614136,148 318,148 Z M245,148" style="fill:none;stroke:rgb(85,142,213);stroke-width:2" clip-path="url(#clip17)" />
<clipPath id="clip18"><path d="M252,155 L312,155 L312,174 L252,174 L252,155 Z" /></clipPath>
<path d="M257.3330078,170.3760071 C258.0740051,170.3760071 258.4509888,169.9989929 258.4509888,169.2709961 L258.4509888,165.4360046 C258.8280029,165.2539978 259.2050171,165.0720062 259.5690002,164.8769989 L259.5690002,163.928009 C259.2050171,164.1360016 258.8280029,164.3179932 258.4509888,164.5 L258.4509888,161.9649963 L259.7640076,161.9649963 L259.7640076,161.0679932 L258.4509888,161.0679932 L258.4509888,158.6109924 L257.4890137,158.6109924 L257.4890137,161.0679932 L255.9160004,161.0679932 L255.9160004,161.9649963 L257.4890137,161.9649963 L257.4890137,164.9029999 C256.9169922,165.1239929 256.3450012,165.3059998 255.7600098,165.4490051 L255.9810028,166.3849945 C256.4880066,166.2290039 256.9949951,166.0469971 257.4890137,165.852005 L257.4890137,169.0240021 C257.4890137,169.348999 257.3200073,169.5180054 257.0079956,169.5180054 C256.6699829,169.5180054 256.3320007,169.4920044 255.9680023,169.4660034 L256.1630249,170.3760071 Z M260.7780151,159.0270081 L260.7780151,163.5379944 L266.4459839,163.5379944 L266.4459839,159.0270081 Z M265.5360107,162.7709961 L261.6879883,162.7709961 L261.6879883,161.6529999 L265.5360107,161.6529999 Z M261.6879883,160.9250031 L261.6879883,159.7940063 L265.5360107,159.7940063 L265.5360107,160.9250031 Z M259.867981,164.447998 L259.867981,165.2799988 L263.1569824,165.2799988 L263.1569824,169.076004 C263.0400085,169.0370026 262.9360046,168.9980011 262.8450012,168.9589996 C262.2990112,168.7120056 261.8179932,168.1529999 261.4020081,167.2819977 C261.5059814,166.8399963 261.5709839,166.397995 261.5969849,165.9299927 L260.7650146,165.8390045 C260.6610107,167.3209991 260.1149902,168.6730042 259.1270142,169.8690033 L259.8160095,170.4669952 C260.375,169.7910004 260.8040161,169.0500031 261.1159973,168.2440033 C261.5059814,168.9720001 261.9609985,169.4660034 262.4550171,169.7259979 C263.07901,170.0379944 264.2490234,170.2070007 265.9649963,170.2200012 C266.3809814,170.2200012 266.8619995,170.2330017 267.382019,170.2330017 L267.6419983,169.322998 C267.1610107,169.3619995 266.5759888,169.3880005 265.9000244,169.3880005 C265.1849976,169.3880005 264.5740051,169.348999 264.0540161,169.2709961 L264.0540161,167.5939941 L266.7709961,167.5939941 L266.7709961,166.7489929 L264.0540161,166.7489929 L264.0540161,165.2799988 L267.3040161,165.2799988 L267.3040161,164.447998 Z M277.2230225,158.4810028 C276.9370117,159.07901 276.598999,159.651001 276.2219849,160.1970062 L273.6870117,160.1970062 C273.401001,159.5859985 273.1149902,159.0400085 272.82901,158.5590057 L271.8410034,158.7279968 C272.1530151,159.1699982 272.4260254,159.651001 272.6860046,160.1970062 L269.1240234,160.1970062 L269.1240234,161.1069946 L280.7590027,161.1069946 L280.7590027,160.1970062 L277.2490234,160.1970062 C277.5610046,159.7810059 277.8599854,159.3130035 278.1329956,158.7929993 Z M273.6350098,170.4150085 C274.3760071,170.4150085 274.7529907,169.9730072 274.7529907,169.0890045 L274.7529907,162.1600037 L270.0339966,162.1600037 L270.0339966,170.5189972 L270.9440002,170.5189972 L270.9440002,167.6719971 L273.8430176,167.6719971 L273.8430176,168.8809967 C273.8430176,169.3099976 273.6740112,169.5310059 273.3359985,169.5310059 L272.3610229,169.4920044 L272.6080017,170.4150085 Z M270.9440002,166.8399963 L270.9440002,165.3580017 L273.8430176,165.3580017 L273.8430176,166.8399963 Z M270.9440002,164.526001 L270.9440002,163.0310059 L273.8430176,163.0310059 L273.8430176,164.526001 Z M278.6920166,170.3760071 C279.4589844,170.3760071 279.848999,169.9730072 279.848999,169.1799927 L279.848999,161.7960052 L278.9130249,161.7960052 L278.9130249,168.9459991 C278.9130249,169.3359985 278.7310181,169.5440063 278.3670044,169.5440063 C277.8469849,169.5440063 277.3140259,169.5180054 276.7680054,169.4790039 L276.9630127,170.3760071 Z M276.2089844,162.7709961 L276.2089844,168.3739929 L277.1190186,168.3739929 L277.1190186,162.7709961 Z M284.8410034,158.5070038 C284.2819824,160.5090027 283.3850098,162.303009 282.1630249,163.8630066 L282.4750061,164.8509979 C282.9039917,164.3569946 283.3070068,163.8240051 283.6710205,163.2779999 L283.6710205,170.4929962 L284.6199951,170.4929962 L284.6199951,161.6529999 C285.0490112,160.7949982 285.4130249,159.8720093 285.7120056,158.9100037 Z M289.677002,158.5070038 L288.7279968,158.6629944 C288.8710022,158.9620056 289.0010071,159.2870026 289.117981,159.625 L285.7120056,159.625 L285.7120056,160.4570007 L293.7590027,160.4570007 L293.7590027,159.625 L290.0540161,159.625 C289.9240112,159.2089996 289.8070068,158.8320007 289.677002,158.5070038 Z M286.5700073,161.2109985 L286.5700073,163.6679993 L292.7579956,163.6679993 L292.7579956,161.2109985 Z M291.8480225,162.9530029 L287.480011,162.9530029 L287.480011,161.9259949 L291.8480225,161.9259949 Z M293.7850037,164.4219971 L285.5950012,164.4219971 L285.5950012,166.6450043 L286.4660034,166.6450043 L286.4660034,167.2299957 L289.3129883,167.2299957 L289.3129883,169.102005 C289.3129883,169.3880005 289.1439819,169.5440063 288.8059998,169.5440063 C288.3770142,169.5440063 287.9349976,169.5180054 287.4670105,169.4920044 L287.6619873,170.4020081 L289.1309814,170.4020081 C289.8850098,170.4020081 290.2750244,170.0379944 290.2750244,169.3359985 L290.2750244,167.2299957 L293.0830078,167.2299957 L293.0830078,166.6450043 L293.7850037,166.6450043 Z M286.5050049,166.423996 L286.5050049,165.2409973 L292.8880005,165.2409973 L292.8880005,166.423996 Z M301.559021,158.6369934 L301.559021,169.0240021 L298.8420105,169.0240021 L298.8420105,160.9120026 L297.9060059,160.9120026 L297.9060059,169.0240021 L295.6959839,169.0240021 L295.6959839,169.9340057 L307.2399902,169.9340057 L307.2399902,169.0240021 L302.5209961,169.0240021 L302.5209961,163.7720032 L306.5250244,163.7720032 L306.5250244,162.8619995 L302.5209961,162.8619995 L302.5209961,158.6369934 Z M307.9680176,169.1929932" style="fill:rgb(23,55,94);stroke:none" clip-path="url(#clip18)" />
<clipPath id="clip19"><path d="M238,211 L312,211 L312,248 L238,248 L238,211 Z" /></clipPath>
<path d="M245,213 C242.2385712,213 240,215.2385712 240,218 L240,240 C240,242.7614288 242.2385712,245 245,245 L304,245 C306.7614136,245 309,242.7614288 309,240 L309,218 C309,215.2385712 306.7614136,213 304,213 Z M245,213" style="fill:rgb(220,230,242);stroke:none" clip-path="url(#clip19)" />
<clipPath id="clip20"><path d="M238,211 L312,211 L312,248 L238,248 L238,211 Z" /></clipPath>
<path d="M245,213 C242.2385712,213 240,215.2385712 240,218 L240,240 C240,242.7614288 242.2385712,245 245,245 L304,245 C306.7614136,245 309,242.7614288 309,240 L309,218 C309,215.2385712 306.7614136,213 304,213 Z M245,213" style="fill:none;stroke:rgb(85,142,213);stroke-width:2" clip-path="url(#clip20)" />
<clipPath id="clip21"><path d="M252,220 L298,220 L298,239 L252,239 L252,220 Z" /></clipPath>
<path d="M265.7900085,223.7539978 C263.2030029,224.2610016 259.9530029,224.5209961 256.0400085,224.5209961 L256.3259888,225.3399963 C257.9119873,225.3399963 259.3939819,225.2879944 260.7460022,225.2099915 L260.7460022,226.9649963 L256.5339966,226.9649963 L256.5339966,227.8359985 L260.7460022,227.8359985 L260.7460022,229.6820068 L255.3899994,229.6820068 L255.3899994,230.5919952 L259.1860046,230.5919952 C258.1199951,232.5939941 257.2620239,233.8159943 256.6119995,234.2709961 C256.572998,234.2969971 256.5079956,234.3359985 256.4169922,234.3619995 L256.625,235.1940002 C259.6409912,235.0119934 262.4230042,234.7519989 264.9840088,234.4400024 C265.2440186,234.8170013 265.4780273,235.1940002 265.6860046,235.5579987 L266.4530029,235.0119934 C265.82901,233.9850006 264.9450073,232.776001 263.7880249,231.397995 L263.0599976,231.8529968 C263.5540161,232.4640045 264.0090027,233.048996 264.4249878,233.6210022 C262.2409973,233.9199982 260.0440063,234.1409912 257.8339844,234.2839966 C258.4840088,233.5559998 259.2510071,232.3339996 260.1350098,230.5919952 L267.0640259,230.5919952 L267.0640259,229.6820068 L261.7080078,229.6820068 L261.7080078,227.8359985 L265.9199829,227.8359985 L265.9199829,226.9649963 L261.7080078,226.9649963 L261.7080078,225.1450043 C263.4240112,225.0149994 264.9320068,224.8070068 266.2189941,224.5209961 Z M276.710022,226.0549927 L275.9429932,226.522995 C276.3200073,226.9389954 276.684021,227.3419952 277.0350037,227.7449951 C275.2150269,227.9530029 273.3430176,228.0960083 271.4060059,228.173996 C272.2510071,227.4589996 272.9790039,226.6009979 273.6030273,225.6130066 L279.8300171,225.6130066 L279.8300171,224.7290039 L275.1370239,224.7290039 C274.9550171,224.2610016 274.7730103,223.8320007 274.5780029,223.4420013 L273.6030273,223.6109924 C273.8110046,223.9490051 274.006012,224.326004 274.1879883,224.7290039 L269.131012,224.7290039 L269.131012,225.6130066 L272.5629883,225.6130066 C271.835022,226.6790009 270.9639893,227.576004 269.9500122,228.3040009 L270.1970215,229.0319977 C272.7319946,228.9409943 275.2020264,228.7460022 277.6199951,228.4599915 C277.9450073,228.8760071 278.2440186,229.2919922 278.5039978,229.6820068 L279.2839966,229.1360016 C278.6860046,228.2519989 277.8280029,227.2250061 276.710022,226.0549927 Z M271.835022,229.5650024 L271.835022,231.0859985 L268.6110229,231.0859985 L268.6110229,231.9960022 L271.7960205,231.9960022 C271.6400146,233.2830048 270.9899902,234.2449951 269.8590088,234.8820038 L270.5610046,235.5059967 C271.8480225,234.7259979 272.5759888,233.5559998 272.7449951,231.9960022 L276.1640015,231.9960022 L276.1640015,235.4799957 L277.1130066,235.4799957 L277.1130066,231.9960022 L280.3370056,231.9960022 L280.3370056,231.0859985 L277.1130066,231.0859985 L277.1130066,229.5650024 L276.1640015,229.5650024 L276.1640015,231.0859985 L272.7839966,231.0859985 L272.7839966,229.5650024 Z M288.7999878,223.5849915 L288.7999878,225.6779938 L285.7189941,225.6779938 L285.7189941,226.5879974 L288.7999878,226.5879974 L288.7999878,229.0189972 L285.0950012,229.0189972 L285.0950012,229.9290009 L288.1760254,229.9290009 C287.1879883,232.2559967 286.382019,233.6860046 285.7709961,234.2189941 C285.7189941,234.2449951 285.6539917,234.2839966 285.5759888,234.3099976 L285.7969971,235.1289978 C288.0980225,234.9080048 290.230011,234.6090088 292.1929932,234.2449951 C292.375,234.6609955 292.5440063,235.0899963 292.7260132,235.5449982 L293.6099854,235.1549988 C293.0250244,233.6730042 292.3359985,232.2689972 291.5559998,230.9689941 L290.6589966,231.2680054 C291.0490112,231.9179993 291.4390259,232.6329956 291.8160095,233.4129944 C290.20401,233.7250061 288.605011,233.9720001 287.006012,234.1409912 C287.6300049,233.321991 288.3580017,231.9179993 289.1900024,229.9290009 L293.45401,229.9290009 L293.45401,229.0189972 L289.7620239,229.0189972 L289.7620239,226.5879974 L293.1030273,226.5879974 L293.1030273,225.6779938 L289.7620239,225.6779938 L289.7620239,223.5849915 Z M282.8980103,223.7929993 L282.2349854,224.4299927 C283.1450195,225.1190033 283.8469849,225.7689972 284.3670044,226.3930054 L285.0299988,225.7169952 C284.4580078,225.0670013 283.7430115,224.4299927 282.8980103,223.7929993 Z M282.5859985,226.8349915 L281.9230042,227.4720001 C282.7550049,228.173996 283.4049988,228.8240051 283.8729858,229.4349976 L284.5490112,228.7720032 C284.0159912,228.121994 283.3659973,227.4720001 282.5859985,226.8349915 Z M284.0809937,230.4360046 C283.5350037,231.9960022 282.8720093,233.5169983 282.1180115,234.9989929 L283.0540161,235.4020081 C283.7430115,233.9589996 284.3670044,232.4120026 284.9260254,230.7740021 Z M294.2340088,234.2059937" style="fill:rgb(23,55,94);stroke:none" clip-path="url(#clip21)" />
<clipPath id="clip22"><path d="M221,276 L309,276 L309,313 L221,313 L221,276 Z" /></clipPath>
<path d="M228,278 C225.2385712,278 223,280.2385864 223,283 L223,305 C223,307.7614136 225.2385712,310 228,310 L301,310 C303.7614136,310 306,307.7614136 306,305 L306,283 C306,280.2385864 303.7614136,278 301,278 Z M228,278" style="fill:rgb(220,230,242);stroke:none" clip-path="url(#clip22)" />
<clipPath id="clip23"><path d="M221,276 L309,276 L309,313 L221,313 L221,276 Z" /></clipPath>
<path d="M228,278 C225.2385712,278 223,280.2385864 223,283 L223,305 C223,307.7614136 225.2385712,310 228,310 L301,310 C303.7614136,310 306,307.7614136 306,305 L306,283 C306,280.2385864 303.7614136,278 301,278 Z M228,278" style="fill:none;stroke:rgb(85,142,213);stroke-width:2" clip-path="url(#clip23)" />
<clipPath id="clip24"><path d="M235,285 L295,285 L295,304 L235,304 L235,285 Z" /></clipPath>
<path d="M240.8204956,288.5979919 L240.8204956,291.0549927 L239.2344971,291.0549927 L239.2344971,291.9519958 L240.8204956,291.9519958 C240.4174957,293.5899963 239.7545013,295.0589905 238.8184967,296.3330078 L239.2214966,297.3469849 C239.8714905,296.3330078 240.4044952,295.2149963 240.8204956,293.9930115 L240.8204956,300.4670105 L241.7434998,300.4670105 L241.7434998,293.95401 C242.1334991,294.447998 242.588501,295.0979919 243.1214905,295.9169922 L243.6544952,295.1239929 C243.0174866,294.3309937 242.3804932,293.6029968 241.7434998,292.9530029 L241.7434998,291.9519958 L243.2514954,291.9519958 L243.2514954,291.0549927 L241.7434998,291.0549927 L241.7434998,288.5979919 Z M244.6554871,294.473999 C244.2914886,296.0859985 243.7064972,297.5419922 242.9004974,298.855011 L243.7064972,299.375 C244.486496,298.0490112 245.0974884,296.4890137 245.5134888,294.6690063 Z M249.361496,294.4089966 L248.5164948,294.6820068 C249.0234985,296.0859985 249.4915009,297.6849976 249.9204865,299.4920044 L250.7654877,299.1149902 C250.3754883,297.4509888 249.9075012,295.8779907 249.361496,294.4089966 Z M246.4494934,300.3370056 C247.2034912,300.3370056 247.5934906,299.946991 247.5934906,299.1799927 L247.5934906,293.394989 L250.7784882,293.394989 L250.7784882,292.4979858 L243.4854889,292.4979858 L243.4854889,293.394989 L246.6575012,293.394989 L246.6575012,298.9459839 C246.6575012,299.322998 246.4754944,299.5180054 246.1244965,299.5180054 C245.7474976,299.5180054 245.3574982,299.4920044 244.9414978,299.4660034 L245.1234894,300.3370056 Z M244.1744995,289.3389893 L244.1744995,290.2229919 L250.1024933,290.2229919 L250.1024933,289.3389893 Z M261.1394958,296.0079956 C260.7495117,297.230011 260.3074951,298.2829895 259.8004761,299.1669922 L252.6244965,299.1669922 L252.6244965,300.0379944 L263.5964966,300.0379944 L263.5964966,299.1669922 L260.8015137,299.1669922 C261.2954712,298.3089905 261.7114868,297.3339844 262.0494995,296.2550049 Z M254.9254913,296.1640015 L254.0804901,296.4370117 C254.4964905,297.1910095 254.8344879,297.9840088 255.0944977,298.8160095 L255.9394989,298.5950012 C255.6404877,297.6849976 255.3024902,296.8659973 254.9254913,296.1640015 Z M257.9284973,295.9039917 L257.0704956,296.177002 C257.4085083,296.9830017 257.681488,297.8280029 257.9024963,298.7120056 L258.7344971,298.4909973 C258.5004883,297.5159912 258.227478,296.6579895 257.9284973,295.9039917 Z M254.7304993,294.6560059 L254.7304993,295.4880066 L261.477478,295.4880066 L261.477478,294.6560059 Z M254.210495,290.5090027 L255.1984863,290.5090027 C255.4324951,291.0159912 255.6274872,291.5490112 255.7964935,292.0950012 L256.65448,291.7829895 C256.5244751,291.3930054 256.3424988,290.9639893 256.134491,290.5090027 L258.0065002,290.5090027 L258.0065002,289.677002 L254.5874939,289.677002 C254.7044983,289.3649902 254.8214874,289.053009 254.9254913,288.7149963 L254.0154877,288.519989 C253.6514893,289.7160034 253.0664978,290.8079834 252.260498,291.79599 L253.0664978,292.303009 C253.4954987,291.757019 253.8724976,291.1589966 254.210495,290.5090027 Z M259.6834717,290.5090027 L260.8145142,290.5090027 C261.1004944,291.0549927 261.3604736,291.6270142 261.5944824,292.2120056 L262.4525146,291.8999939 C262.2835083,291.4580078 262.0625,291.0029907 261.7764893,290.5090027 L263.8435059,290.5090027 L263.8435059,289.677002 L260.0474854,289.677002 C260.1514893,289.3649902 260.2554932,289.053009 260.3594971,288.7149963 L259.4624939,288.519989 C259.1895142,289.5339966 258.7474976,290.4440002 258.1364746,291.276001 L258.9295044,291.7829895 C259.2025146,291.3930054 259.4494934,290.9639893 259.6834717,290.5090027 Z M257.7984924,291.79599 C256.3034973,292.901001 254.431488,293.8240051 252.1954956,294.5780029 L252.6374969,295.3840027 C254.8994904,294.5910034 256.7194824,293.6549988 258.0974731,292.5629883 C259.6054993,293.7330017 261.4124756,294.6690063 263.5444946,295.3970032 L263.9995117,294.5910034 C261.8804932,293.9150085 260.0084839,292.9790039 258.3964844,291.79599 Z M266.1184998,289.1439819 L266.1184998,290.0540161 L270.8244934,290.0540161 L270.8244934,294.9680176 L265.5985107,294.9680176 L265.5985107,295.8649902 L270.8244934,295.8649902 L270.8244934,300.4670105 L271.786499,300.4670105 L271.786499,295.8649902 L277.1165161,295.8649902 L277.1165161,294.9680176 L271.786499,294.9680176 L271.786499,290.0540161 L276.6224976,290.0540161 L276.6224976,289.1439819 Z M267.7044983,290.8859863 L266.8334961,291.3150024 C267.3275146,292.1860046 267.7954712,293.1740112 268.2374878,294.2919922 L269.10849,293.8630066 C268.6665039,292.7839966 268.1984863,291.79599 267.7044983,290.8859863 Z M275.0755005,290.8209839 C274.6984863,291.8089905 274.1914978,292.7969971 273.5545044,293.8110046 L274.3864746,294.2399902 C275.0234985,293.2520142 275.5434875,292.2510071 275.9334717,291.223999 Z M284.0714722,291.5360107 L285.9564819,291.5360107 L285.9564819,292.5239868 L284.0714722,292.5239868 Z M286.7495117,292.5239868 L286.7495117,290.8209839 L284.0714722,290.8209839 L284.0714722,289.8460083 L288.3745117,289.8460083 L288.3745117,292.5239868 Z M289.2584839,292.5239868 L289.2584839,289.0270081 L283.1875,289.0270081 L283.1875,292.5239868 L282.1604919,292.5239868 L282.1604919,294.6820068 L283.0574951,294.6820068 L283.0574951,293.3300171 L289.2974854,293.3300171 L289.2974854,294.6950073 L290.181488,294.6950073 L290.181488,292.5239868 Z M288.0234985,300.45401 C288.6994934,300.45401 289.0504761,300.1159973 289.0504761,299.4530029 L289.0504761,294.1749878 L283.3565063,294.1749878 L283.3565063,300.480011 L284.253479,300.480011 L284.253479,298.3999939 L288.1795044,298.3999939 L288.1795044,299.2709961 C288.1795044,299.5180054 288.036499,299.6480103 287.7504883,299.6480103 L286.4765015,299.6220093 L286.7105103,300.45401 Z M284.253479,297.6589966 L284.253479,296.67099 L288.1795044,296.67099 L288.1795044,297.6589966 Z M284.253479,295.9299927 L284.253479,294.9680176 L288.1795044,294.9680176 L288.1795044,295.9299927 Z M279.7294922,288.8190002 L279.0924988,289.4169922 C280.0935059,290.144989 280.8734741,290.8209839 281.4454956,291.4580078 L282.082489,290.8209839 C281.4454956,290.1579895 280.6654968,289.4949951 279.7294922,288.8190002 Z M279.5994873,291.9909973 L278.9624939,292.5889893 C279.8724976,293.2910156 280.5744934,293.9410095 281.0944824,294.552002 L281.7185059,293.9150085 C281.1464844,293.2650146 280.4444885,292.6279907 279.5994873,291.9909973 Z M280.8604736,295.6959839 C280.3405151,297.178009 279.7294922,298.6340027 279.0144958,300.0639954 L279.8464966,300.4410095 C280.5224915,299.0629883 281.1334839,297.5809937 281.6795044,296.0079956 Z M291.1174927,299.1799927" style="fill:rgb(23,55,94);stroke:none" clip-path="url(#clip24)" />
<clipPath id="clip25"><path d="M179,341 L267,341 L267,378 L179,378 L179,341 Z" /></clipPath>
<path d="M186,343 C183.2385712,343 181,345.2385864 181,348 L181,370 C181,372.7614136 183.2385712,375 186,375 L259,375 C261.7614136,375 264,372.7614136 264,370 L264,348 C264,345.2385864 261.7614136,343 259,343 Z M186,343" style="fill:rgb(220,230,242);stroke:none" clip-path="url(#clip25)" />
<clipPath id="clip26"><path d="M179,341 L267,341 L267,378 L179,378 L179,341 Z" /></clipPath>
<path d="M186,343 C183.2385712,343 181,345.2385864 181,348 L181,370 C181,372.7614136 183.2385712,375 186,375 L259,375 C261.7614136,375 264,372.7614136 264,370 L264,348 C264,345.2385864 261.7614136,343 259,343 Z M186,343" style="fill:none;stroke:rgb(85,142,213);stroke-width:2" clip-path="url(#clip26)" />
<clipPath id="clip27"><path d="M193,350 L253,350 L253,369 L193,369 L193,350 Z" /></clipPath>
<path d="M204.7160034,356.4450073 L206.6399994,356.4450073 C206.5880127,358.2000122 206.3150024,359.7340088 205.8080139,361.0469971 C205.2879944,359.9549866 204.8720093,358.6419983 204.5469971,357.1209717 Z M205.3789978,361.9829712 C204.7810059,363.0880127 203.9880066,363.9849854 202.973999,364.6870117 L203.4550018,365.46698 C204.4299927,364.7650146 205.2359924,363.8939819 205.8600006,362.8540039 C206.5100098,363.9459839 207.2900085,364.8299866 208.2000122,365.4799805 L208.7070007,364.7130127 C207.7709961,364.0759888 206.9779968,363.1789856 206.302002,362.0089722 C207.0299988,360.4749756 207.4330139,358.6159973 207.4980011,356.4450073 L208.3430023,356.4450073 L208.3430023,355.5479736 L204.9110107,355.5479736 C205.0149994,354.9760132 205.1190033,354.3519897 205.1970062,353.6889954 L204.2870026,353.5329895 C204.0270081,356.0029907 203.5070038,357.9660034 202.7400055,359.4219971 L203.3250122,360.1369934 C203.5979919,359.6690063 203.8580017,359.1359863 204.0920105,358.5379944 C204.4429932,359.8380127 204.8720093,360.9819946 205.3789978,361.9829712 Z M199.2170105,359.6040039 C199.1260071,359.8640137 199.0220032,360.1369934 198.9049988,360.4229736 L197.0070038,360.4229736 L197.0070038,361.2420044 L198.5410004,361.2420044 C198.2810059,361.7619934 197.9819946,362.2949829 197.6440125,362.8670044 C198.2810059,363.1010132 198.8789978,363.3479919 199.451004,363.5949707 C198.6970062,364.0239868 197.7740021,364.375 196.7080078,364.6610107 L197.1499939,365.440979 C198.4500122,365.0769958 199.5289917,364.5960083 200.3869934,363.9979858 C201.1539917,364.3359985 201.8170013,364.6870117 202.3890076,365.0249939 L202.8959961,364.2969971 C202.3240051,363.9849854 201.7260132,363.6989746 201.102005,363.4129944 C201.7779999,362.7890015 202.2590027,362.0479736 202.5450134,361.1900024 L202.5450134,360.4229736 L199.8280029,360.4229736 C199.9060059,360.1889954 199.9970093,359.9549866 200.0880127,359.7080078 Z M200.2440033,363.0490112 C199.776001,362.8540039 199.2820129,362.6719971 198.7619934,362.4899902 C199.0220032,362.0999756 199.256012,361.6839905 199.4640045,361.2420044 L201.7000122,361.2420044 C201.3880005,361.9179993 200.8940125,362.5289917 200.2440033,363.0490112 Z M198.0339966,353.8059998 L197.2929993,354.0529785 C197.605011,354.5469971 197.8909912,355.1059875 198.1640015,355.742981 L198.8399963,355.4309998 C198.6060028,354.8590088 198.3460083,354.3129883 198.0339966,353.8059998 Z M201.9859924,353.7669983 C201.7519989,354.3129883 201.4140015,354.8590088 200.9980011,355.4179993 L201.6610107,355.7559814 C202.0769958,355.2099915 202.4020081,354.651001 202.6620026,354.0789795 Z M197.0330048,356.0549927 L197.0330048,356.8739929 L198.8789978,356.8739929 C198.4890137,357.5889893 197.7870026,358.2390137 196.7860107,358.8239746 L197.2409973,359.5780029 C198.3590088,358.8239746 199.1390076,357.9400024 199.5679932,356.9129944 L199.5679932,359.3829956 L200.4389954,359.3829956 L200.4389954,357.6929932 C200.9070129,358.0050049 201.4660034,358.42099 202.1159973,358.940979 L202.5970001,358.2130127 C201.8690033,357.7709961 201.1409912,357.367981 200.4389954,357.0169983 L200.4389954,356.8739929 L202.8049927,356.8739929 L202.8049927,356.0549927 L200.4389954,356.0549927 L200.4389954,353.571991 L199.5679932,353.571991 L199.5679932,356.0549927 Z M211.5540009,365.3629761 C212.2820129,365.3629761 212.6459961,364.9729919 212.6459961,364.2189941 L212.6459961,360.4229736 C213.0490112,360.2409973 213.4519958,360.0589905 213.855011,359.8510132 L213.855011,358.9279785 C213.4649963,359.1359863 213.0620117,359.3309937 212.6459961,359.5130005 L212.6459961,356.9519958 L213.8940125,356.9519958 L213.8940125,356.0549927 L212.6459961,356.0549927 L212.6459961,353.5979919 L211.7359924,353.5979919 L211.7359924,356.0549927 L210.1759949,356.0549927 L210.1759949,356.9519958 L211.7359924,356.9519958 L211.7359924,359.8900146 C211.1640015,360.0979919 210.5660095,360.2799988 209.9680023,360.4229736 L210.2019958,361.3330078 C210.7089996,361.177002 211.2160034,360.9949951 211.7359924,360.7999878 L211.7359924,363.9849854 C211.7359924,364.348999 211.5670013,364.5440063 211.2420044,364.5440063 C210.9299927,364.5440063 210.5920105,364.5180054 210.2539978,364.4790039 L210.4490051,365.3629761 Z M215.4410095,359.6170044 L218.0930023,359.6170044 L218.0930023,361.2160034 L215.9219971,361.2160034 L215.9219971,365.4799805 L216.7929993,365.4799805 L216.7929993,364.8429871 L220.3160095,364.8429871 L220.3160095,365.4799805 L221.1870117,365.4799805 L221.1870117,361.2160034 L219.003006,361.2160034 L219.003006,359.6170044 L221.7850037,359.6170044 L221.7850037,358.7719727 L219.003006,358.7719727 L219.003006,357.2379761 L221.4470062,357.2379761 L221.4470062,354.0789795 L214.5960083,354.0789795 L214.5960083,358.1480103 C214.5830078,360.8779907 214.1150055,363.1140137 213.1920013,364.8299866 L213.9200134,365.4799805 C214.7779999,363.789978 215.2850037,361.8399963 215.4410095,359.6170044 Z M218.0930023,357.2379761 L218.0930023,358.7719727 L215.4930115,358.7719727 C215.4930115,358.5639954 215.506012,358.3559875 215.506012,358.1480103 L215.506012,357.2379761 Z M216.7929993,364.0109863 L216.7929993,362.0479736 L220.3160095,362.0479736 L220.3160095,364.0109863 Z M220.5370026,354.9500122 L220.5370026,356.3930054 L215.506012,356.3930054 L215.506012,354.9500122 Z M223.3190002,357.0299988 L223.3190002,357.9140015 L224.7359924,357.9140015 L224.7359924,362.5679932 C224.2420044,362.723999 223.7480011,362.8670044 223.2409973,362.9840088 L223.4750061,363.9069824 C224.7879944,363.5169983 226.022995,363.0360107 227.1670074,362.4639893 L227.1670074,361.5280151 C226.6730042,361.7879944 226.1660004,362.0219727 225.6589966,362.2299805 L225.6589966,357.9140015 L226.9720001,357.9140015 L226.9720001,357.0299988 L225.6589966,357.0299988 L225.6589966,353.6239929 L224.7359924,353.6239929 L224.7359924,357.0299988 Z M229.6240082,353.571991 L228.6880035,353.7279968 C228.9219971,354.1829834 229.1300049,354.677002 229.3119965,355.2229919 L227.5310059,355.2229919 L227.5310059,359.6040039 L234.6549988,359.6040039 L234.6549988,355.2229919 L232.9389954,355.2229919 C233.1600037,354.7290039 233.32901,354.1829834 233.4589996,353.6109924 L232.522995,353.4809875 C232.4190063,354.0789795 232.25,354.6640015 232.0160065,355.2229919 L230.1829987,355.2229919 C230.0010071,354.598999 229.8059998,354.0529785 229.6240082,353.571991 Z M233.8359985,358.8369751 L231.4309998,358.8369751 L231.4309998,356.0029907 L233.8359985,356.0029907 Z M230.6900024,358.8369751 L228.3500061,358.8369751 L228.3500061,356.0029907 L230.6900024,356.0029907 Z M229.5330048,356.5360107 L228.9219971,356.7309875 C229.1560059,357.2509766 229.3639984,357.8099976 229.5330048,358.3819885 L230.1439972,358.2260132 C229.9620056,357.5889893 229.7539978,357.0299988 229.5330048,356.5360107 Z M232.5879974,356.4710083 C232.4060059,357.1729736 232.2109985,357.7449951 231.977005,358.2000122 L232.5749969,358.42099 C232.8350067,357.901001 233.0559998,357.3029785 233.2250061,356.6270142 Z M234.1869965,360.4749756 L228.0510101,360.4749756 L228.0510101,365.492981 L228.947998,365.492981 L228.947998,364.946991 L233.2900085,364.946991 L233.2900085,365.492981 L234.1869965,365.492981 Z M228.947998,364.1799927 L228.947998,363.0750122 L233.2900085,363.0750122 L233.2900085,364.1799927 Z M228.947998,362.3469849 L228.947998,361.2420044 L233.2900085,361.2420044 L233.2900085,362.3469849 Z M241.3890076,358.4339905 L241.3890076,361.9440002 L244.1450043,361.9440002 L244.1450043,364.0369873 C243.1309967,364.1409912 242.0780029,364.2449951 241.0120087,364.322998 L241.2330017,365.2199707 C243.3130035,365.0119934 245.2890015,364.7780151 247.1350098,364.4920044 C247.2519989,364.8299866 247.3690033,365.1679993 247.4730072,365.5189819 L248.2920074,365.2069702 C248.0319977,364.322998 247.6549988,363.3349915 247.173996,362.2689819 L246.32901,362.5029907 C246.4980011,362.8930054 246.6670074,363.2829895 246.822998,363.6729736 C246.2640076,363.7509766 245.6790009,363.84198 245.0810089,363.9199829 L245.0810089,361.9440002 L247.8240051,361.9440002 L247.8240051,358.4339905 L245.0810089,358.4339905 L245.0810089,357.3289795 L247.3820038,357.3289795 L247.3820038,354.0789795 L241.8570099,354.0789795 L241.8570099,357.3289795 L244.1450043,357.3289795 L244.1450043,358.4339905 Z M246.9660034,361.1380005 L245.0810089,361.1380005 L245.0810089,359.2399902 L246.9660034,359.2399902 Z M244.1450043,361.1380005 L242.2340088,361.1380005 L242.2340088,359.2399902 L244.1450043,359.2399902 Z M238.0220032,357.8359985 L240.401001,357.8359985 L240.401001,354.0789795 L236.9300079,354.0789795 L236.9300079,354.9500122 L239.5169983,354.9500122 L239.5169983,356.9909973 L237.2160034,356.9909973 L236.8130035,360.7609863 L239.6210022,360.7609863 C239.6210022,362.3079834 239.5559998,363.321991 239.4519958,363.815979 C239.3350067,364.2839966 238.9060059,364.5310059 238.178009,364.5310059 C237.8399963,364.5310059 237.5019989,364.5050049 237.1640015,364.4790039 L237.3850098,365.3369751 C237.7230072,365.3629761 238.0480042,365.3889771 238.3860016,365.3889771 C239.5169983,365.3369751 240.1670074,364.946991 240.322998,364.2059937 C240.4530029,363.5299988 240.5310059,362.0999756 240.5310059,359.9419861 L237.7620087,359.9419861 Z M246.5240021,356.5360107 L242.7279968,356.5360107 L242.7279968,354.8590088 L246.5240021,354.8590088 Z M248.9420013,364.1799927" style="fill:rgb(23,55,94);stroke:none" clip-path="url(#clip27)" />
</svg>
